<?xml version="1.0" standalone="no"?>
<!DOCTYPE svg PUBLIC "-//W3C//DTD SVG 20010904//EN"
 "http://www.w3.org/TR/2001/REC-SVG-20010904/DTD/svg10.dtd">
<svg version="1.0" xmlns="http://www.w3.org/2000/svg"
 width="300.000000pt" height="300.000000pt" viewBox="0 0 300.000000 300.000000"
 preserveAspectRatio="xMidYMid meet">

<g transform="translate(0.000000,300.000000) scale(0.100000,-0.100000)"
fill="#000000" stroke="none">
<path d="M1255 2450 c3 -5 13 -10 21 -10 8 0 14 5 14 10 0 6 -9 10 -21 10 -11
0 -17 -4 -14 -10z"/>
<path d="M1260 2352 c0 -34 4 -40 35 -55 20 -10 37 -12 40 -7 7 11 -51 100
-65 100 -6 0 -10 -17 -10 -38z"/>
<path d="M977 2343 c-20 -20 -37 -43 -37 -50 0 -8 -5 -11 -11 -8 -7 5 -5 15 6
32 9 14 15 27 12 29 -13 14 -113 -154 -122 -205 -3 -20 -1 -49 4 -65 7 -17 7
-25 1 -21 -18 11 -11 -78 10 -141 22 -64 80 -151 108 -161 9 -4 25 -17 34 -28
9 -12 45 -35 80 -51 57 -26 73 -29 168 -29 90 0 112 3 155 24 31 15 44 26 34
28 -11 3 -15 12 -11 28 l4 24 18 -21 17 -21 35 21 c32 20 68 59 93 101 5 10 4
12 -3 7 -7 -4 -12 -2 -12 5 0 7 -6 5 -13 -6 -10 -13 -16 -15 -21 -6 -4 6 6 25
24 43 25 25 34 28 40 17 12 -19 19 -9 36 52 18 68 18 112 2 106 -7 -2 -12 -10
-10 -16 1 -6 -2 -11 -8 -11 -5 0 -10 8 -11 18 0 10 -3 12 -6 5 -11 -28 -30
-10 -47 43 -18 58 -50 101 -62 83 -3 -6 -13 -8 -21 -5 -8 3 -12 2 -8 -3 10
-17 -20 -18 -33 -2 -11 14 -12 13 -3 -6 17 -34 14 -45 -9 -31 -11 7 -32 38
-47 70 -26 53 -56 78 -69 57 -3 -5 -20 -7 -37 -4 -25 5 -41 0 -70 -19 -21 -14
-42 -26 -47 -26 -4 0 -11 -6 -13 -12 -3 -7 -6 -8 -6 -2 -1 11 46 59 57 59 4 0
5 5 3 10 -2 6 -3 22 -3 37 0 15 -7 33 -16 40 -15 12 -16 11 -4 -4 11 -14 10
-18 -8 -28 -12 -6 -28 -9 -36 -6 -8 3 -14 0 -14 -7 -1 -8 -5 -7 -13 3 -19 23
-40 24 -33 2 4 -11 0 -24 -7 -31 -9 -7 -12 -22 -9 -38 4 -21 7 -24 16 -12 6 8
18 15 26 17 12 3 13 1 2 -9 -10 -11 -8 -16 10 -26 22 -13 22 -13 -4 -7 -24 5
-28 3 -28 -16 0 -18 4 -21 21 -17 17 4 19 3 10 -6 -17 -17 -13 -31 4 -17 13
11 14 10 10 -1 -3 -8 6 -27 20 -43 14 -16 25 -31 25 -33 0 -7 -9 -2 -25 13 -9
9 -19 13 -22 10 -10 -10 17 -32 76 -63 62 -32 71 -47 40 -63 -20 -11 -21 -10
-16 9 5 22 -7 29 -18 10 -5 -6 -11 -4 -19 7 -7 9 -18 14 -23 11 -6 -4 -21 2
-34 12 -13 10 -33 21 -44 24 -16 4 -17 5 -2 6 9 0 17 6 17 11 0 5 -5 9 -11 8
-6 -2 -16 6 -22 17 -7 11 -15 22 -18 25 -3 3 -5 13 -3 23 2 14 0 16 -11 7 -8
-7 -19 -9 -25 -5 -14 9 -13 -8 2 -23 9 -9 8 -12 -6 -12 -15 0 -17 -5 -12 -31
5 -27 4 -30 -9 -19 -10 9 -15 9 -15 1 0 -26 -20 -8 -26 24 -6 36 -24 49 -24
18 0 -33 -11 -4 -16 43 -4 37 0 62 15 97 11 26 23 47 27 47 3 0 3 -7 0 -16 -5
-14 -4 -15 9 -4 8 7 15 22 15 34 0 16 7 22 25 24 14 1 25 -3 25 -8 0 -6 7 -10
15 -10 8 0 15 9 15 21 0 11 5 30 11 41 8 15 8 19 0 14 -6 -4 -11 0 -11 8 0 25
-13 19 -53 -21z m223 -155 c14 -16 17 -24 8 -29 -13 -8 -37 17 -38 39 0 17 6
15 30 -10z m47 -44 c-3 -3 -12 -4 -19 -1 -8 3 -5 6 6 6 11 1 17 -2 13 -5z
m286 -84 c3 -11 1 -20 -4 -20 -11 0 -30 36 -22 43 9 10 20 0 26 -23z m-518
-60 c-14 -27 -15 -34 -3 -41 7 -5 16 -9 21 -9 20 0 4 -20 -17 -20 -40 0 -49
50 -14 87 28 30 34 23 13 -17z m564 -4 c23 -23 32 -40 27 -52 -6 -15 -9 -14
-27 7 -27 31 -52 79 -41 79 4 0 23 -15 41 -34z m-479 -39 c0 14 33 10 38 -5 2
-7 9 -12 17 -12 26 0 33 -24 14 -44 -11 -11 -19 -15 -19 -8 0 7 -9 8 -28 3
-24 -7 -28 -6 -28 13 0 11 5 25 10 29 7 5 3 7 -9 5 -12 -2 -19 2 -17 10 1 6
-3 12 -9 12 -5 0 -7 5 -4 11 5 6 12 4 21 -8 7 -10 14 -13 14 -6z m-151 -52 c0
-5 -9 1 -19 14 -11 13 -20 28 -20 35 0 6 9 0 20 -14 11 -14 20 -29 19 -35z
m328 35 c-4 -16 -2 -20 12 -15 10 3 24 -1 31 -10 7 -8 25 -15 41 -15 15 0 34
-8 41 -17 7 -10 19 -18 26 -19 28 -2 31 -5 26 -19 -5 -12 -10 -13 -19 -5 -10
8 -19 5 -34 -11 -12 -13 -21 -27 -21 -32 0 -5 -6 -7 -14 -4 -8 3 -17 0 -20 -8
-3 -9 3 -15 17 -17 18 -2 14 -8 -26 -31 -46 -28 -78 -32 -78 -12 0 6 8 11 18
13 39 7 48 13 34 21 -10 7 -11 13 -2 30 7 12 9 25 7 30 -7 10 17 21 47 21 21
1 21 2 -3 13 -14 7 -25 19 -25 27 0 11 -10 15 -32 14 -21 -1 -31 2 -26 9 4 6
0 8 -10 4 -10 -4 -16 -2 -14 5 1 6 -4 13 -12 16 -10 3 -12 0 -8 -12 5 -11 1
-16 -14 -16 -20 0 -20 0 1 22 11 12 20 25 20 30 0 4 10 8 21 8 17 0 20 -5 16
-20z m-207 -75 c0 -8 -4 -15 -9 -15 -13 0 -22 16 -14 24 11 11 23 6 23 -9z
m128 -3 c2 -7 -1 -12 -8 -12 -6 0 -9 4 -6 9 4 5 1 12 -4 14 -6 3 -5 4 2 3 6
-1 14 -8 16 -14z m67 8 c-3 -5 -12 -10 -18 -10 -7 0 -6 4 3 10 19 12 23 12 15
0z m-124 -25 c5 4 9 2 9 -4 0 -16 -21 -24 -32 -13 -6 6 -7 18 -3 29 8 17 8 17
12 0 3 -9 9 -15 14 -12z m-88 -24 c14 -17 27 -28 30 -25 2 3 7 -4 10 -15 3
-12 0 -19 -6 -18 -16 3 -37 24 -37 36 0 6 -9 16 -20 23 -21 13 -27 28 -11 28
5 0 20 -13 34 -29z m157 -4 c0 -8 -7 -14 -15 -14 -16 0 -19 9 -8 20 11 11 23
8 23 -6z m310 -12 c0 -8 -4 -17 -10 -20 -6 -4 -10 5 -10 20 0 15 4 24 10 20 6
-3 10 -12 10 -20z m-83 9 c-3 -3 -12 -4 -19 -1 -8 3 -5 6 6 6 11 1 17 -2 13
-5z m-212 -44 c3 -5 -1 -10 -9 -10 -8 0 -18 5 -21 10 -3 6 1 10 9 10 8 0 18
-4 21 -10z m14 -60 c6 0 11 -11 11 -25 0 -14 -5 -25 -11 -25 -5 0 -8 4 -5 9 3
5 -3 20 -14 34 -11 14 -20 29 -20 34 0 4 7 0 14 -9 7 -10 18 -18 25 -18z
m-209 10 c13 -8 13 -10 -2 -10 -9 0 -20 5 -23 10 -8 13 5 13 25 0z m348 -36
c-8 -9 -35 -17 -59 -19 -42 -4 -43 -4 -8 4 21 4 45 15 54 25 10 9 20 14 23 11
3 -3 -1 -12 -10 -21z"/>
<path d="M1186 2371 c-3 -5 1 -14 9 -21 12 -10 15 -10 15 3 0 19 -16 31 -24
18z"/>
<path d="M1385 2303 c7 -20 21 -43 31 -50 11 -8 18 -19 17 -24 -2 -5 3 -10 10
-11 6 0 17 -2 22 -2 6 -1 20 -7 32 -14 14 -8 24 -9 28 -2 3 6 -5 14 -19 20
-15 5 -25 13 -24 17 6 31 -61 103 -95 103 -12 0 -13 -6 -2 -37z m50 -23 c3 -5
2 -10 -4 -10 -5 0 -13 5 -16 10 -3 6 -2 10 4 10 5 0 13 -4 16 -10z"/>
<path d="M1445 2330 c3 -5 8 -10 11 -10 2 0 4 5 4 10 0 6 -5 10 -11 10 -5 0
-7 -4 -4 -10z"/>
<path d="M986 2151 c-4 -7 -5 -15 -2 -18 9 -9 19 4 14 18 -4 11 -6 11 -12 0z"/>
<path d="M1055 2101 c-3 -5 -1 -12 5 -16 5 -3 10 1 10 9 0 18 -6 21 -15 7z"/>
<path d="M1712 2048 c24 -24 61 -64 82 -91 21 -26 42 -44 48 -41 6 4 8 2 4 -4
-3 -6 5 -23 18 -38 l24 -28 7 109 c4 61 12 116 17 123 8 9 1 12 -28 12 -31 -1
-36 -3 -21 -11 14 -8 17 -24 17 -82 l0 -72 -37 44 c-34 41 -37 42 -50 25 -13
-18 -14 -17 -8 8 5 19 1 35 -16 57 -19 25 -30 31 -62 31 l-39 0 44 -42z"/>
<path d="M1967 2082 c7 -5 16 -36 19 -70 6 -55 9 -61 23 -50 15 12 15 11 0 -7
-9 -11 -20 -33 -23 -50 -4 -16 -13 -33 -19 -37 -7 -4 31 -8 84 -8 79 0 98 3
103 16 12 31 5 37 -18 15 -18 -17 -33 -22 -62 -19 -39 3 -39 3 -42 51 -3 44
-2 47 22 47 14 0 30 -8 35 -17 8 -14 10 -9 11 27 0 43 0 44 -16 22 -8 -12 -24
-22 -35 -22 -16 0 -19 7 -19 49 0 43 3 50 23 54 12 2 -5 5 -38 5 -33 1 -54 -2
-48 -6z"/>
<path d="M2100 2082 c0 -5 12 -19 27 -33 21 -19 25 -20 20 -6 -4 10 -7 25 -7
33 0 8 -9 14 -20 14 -11 0 -20 -4 -20 -8z"/>
<path d="M1120 2016 c0 -8 5 -18 10 -21 6 -3 10 1 10 9 0 8 -4 18 -10 21 -5 3
-10 -1 -10 -9z"/>
<path d="M1705 2001 c-3 -5 -1 -12 5 -16 5 -3 10 1 10 9 0 18 -6 21 -15 7z"/>
<path d="M1711 1960 c-2 -8 -5 -30 -7 -49 -2 -19 -10 -38 -17 -43 -6 -4 -7 -8
-2 -8 27 0 36 19 32 66 -2 27 -5 42 -6 34z"/>
<path d="M2085 1631 c-38 -3 -69 -10 -68 -16 1 -6 -26 -11 -59 -12 -113 -4
-210 -52 -188 -93 5 -10 10 -21 10 -25 0 -12 -70 -35 -108 -35 -39 0 -83 -22
-65 -33 5 -3 34 -7 64 -9 33 -2 60 -9 71 -20 21 -21 123 -14 186 13 48 20 96
18 145 -8 36 -18 29 -28 -7 -11 -23 10 -33 9 -62 -7 -49 -26 -45 -51 9 -54 69
-5 129 0 160 14 22 9 84 -36 98 -72 15 -40 11 -160 -7 -194 -8 -17 -13 -34
-10 -37 9 -8 134 -7 142 1 4 4 -3 19 -17 33 -20 21 -25 40 -31 117 l-7 92 50
48 c28 26 57 47 65 47 8 0 14 5 14 10 0 6 11 10 25 10 16 0 25 -6 25 -15 0
-10 10 -15 28 -15 l27 1 -27 15 c-38 20 -35 35 5 30 17 -3 42 -5 54 -5 12 -1
29 -9 39 -18 27 -27 141 -52 182 -39 29 9 32 12 18 22 -9 6 -34 14 -56 18 -22
3 -40 10 -40 15 0 14 62 22 76 10 9 -7 23 -8 41 -2 l28 10 -44 31 c-24 18 -68
43 -97 57 -30 14 -54 32 -54 40 0 11 -11 15 -37 15 -21 1 -55 7 -76 14 -23 9
-49 11 -65 7 -16 -5 -42 -3 -65 5 -21 8 -48 15 -60 17 -12 2 -30 7 -40 12 -9
4 -28 4 -42 1 -14 -4 -35 -1 -47 5 -27 14 -90 18 -183 10z m165 -101 c0 -5 -4
-10 -10 -10 -5 0 -10 5 -10 10 0 6 5 10 10 10 6 0 10 -4 10 -10z m-130 -31 c0
-11 -4 -17 -10 -14 -5 3 -10 13 -10 21 0 8 5 14 10 14 6 0 10 -9 10 -21z m-40
-9 c0 -5 -4 -10 -10 -10 -5 0 -10 5 -10 10 0 6 5 10 10 10 6 0 10 -4 10 -10z
m99 1 c9 -6 10 -10 2 -16 -15 -8 -41 1 -41 15 0 12 20 13 39 1z m164 -8 c-7
-2 -21 -2 -30 0 -10 3 -4 5 12 5 17 0 24 -2 18 -5z m-333 -13 c0 -10 -41 -30
-61 -30 -19 0 -8 29 14 33 40 8 47 7 47 -3z m64 -6 c9 -3 13 -11 10 -16 -4 -6
4 -5 16 2 23 12 39 2 40 -26 0 -6 10 -16 23 -22 20 -10 19 -11 -13 -11 -20 -1
-53 8 -75 19 -22 11 -45 20 -52 20 -18 0 -16 10 5 26 20 15 25 16 46 8z m366
-16 c0 -11 -38 -10 -44 1 -3 5 5 8 19 7 14 0 25 -4 25 -8z m-83 -20 c-3 -8 -6
-5 -6 6 -1 11 2 17 5 13 3 -3 4 -12 1 -19z m408 -4 c-23 -17 -56 -15 -63 4 -2
8 9 12 40 12 40 -1 42 -2 23 -16z m-898 -9 c6 -2 13 1 15 6 2 6 17 9 33 7 l30
-3 -32 -17 c-31 -16 -163 -25 -163 -11 0 25 65 35 117 18z m423 -1 c0 -15 -54
-20 -84 -8 -30 12 -16 20 34 21 36 0 50 -3 50 -13z m142 -36 c-9 -9 -15 -9
-24 0 -9 9 -7 12 12 12 19 0 21 -3 12 -12z m288 2 c8 -5 11 -12 7 -16 -4 -4
-15 0 -24 9 -18 18 -8 23 17 7z"/>
<path d="M623 1599 c-44 -10 -54 -27 -29 -48 9 -8 21 -8 45 0 57 20 150 7 209
-29 l52 -32 15 30 c9 17 20 30 25 30 14 0 12 -9 -9 -44 l-20 -31 30 -40 c17
-22 32 -39 35 -37 11 6 24 1 24 -9 0 -6 -7 -9 -15 -5 -18 7 -18 -1 -1 -33 l13
-24 7 34 c16 76 18 111 8 121 -8 8 -14 4 -21 -14 -9 -24 -31 -47 -31 -34 0 3
12 27 27 54 20 36 25 54 19 76 l-7 29 -19 -21 -19 -20 -58 23 c-68 28 -213 40
-280 24z"/>
<path d="M485 1537 c-4 -10 -20 -24 -36 -33 -34 -17 -97 -108 -101 -144 -2
-14 -7 -28 -11 -31 -13 -9 -26 -125 -21 -177 3 -26 14 -62 25 -80 11 -19 16
-38 13 -44 -4 -7 -2 -8 4 -4 8 5 11 -1 9 -16 -1 -14 3 -22 10 -21 7 2 10 -3 7
-11 -3 -7 7 -26 21 -42 27 -30 24 -13 -3 19 -8 9 -12 17 -8 17 9 0 45 -42 46
-53 1 -25 99 -97 133 -97 15 0 16 4 7 23 -9 17 -6 16 13 -7 18 -21 36 -29 70
-33 55 -7 159 5 152 17 -3 4 3 6 13 3 29 -7 102 36 166 99 49 49 56 61 45 74
-10 13 -17 10 -51 -24 -51 -52 -149 -92 -223 -92 -31 0 -44 -6 -67 -32 -15
-18 -27 -26 -26 -18 2 8 12 22 23 31 11 10 18 19 15 21 -3 1 -27 14 -53 28
-56 28 -84 59 -123 130 -17 32 -33 49 -41 46 -7 -3 -13 -1 -13 4 0 6 5 10 10
10 6 0 10 10 9 23 0 12 -3 16 -6 10 -2 -7 -17 -13 -31 -13 l-27 1 28 17 c31
19 35 37 10 47 -17 6 -17 7 -1 19 16 12 16 15 -3 45 -11 18 -18 41 -16 50 3
11 5 9 6 -6 0 -13 5 -23 10 -23 11 0 21 36 21 81 0 19 4 39 9 45 11 11 33 90
23 79 -4 -3 -12 13 -18 37 -9 33 -13 39 -19 25z m-35 -71 c0 -2 -9 -6 -20 -9
-11 -3 -18 -1 -14 4 5 9 34 13 34 5z m37 -58 c-3 -8 -6 -5 -6 6 -1 11 2 17 5
13 3 -3 4 -12 1 -19z m-58 5 c-8 -2 -20 -16 -26 -31 l-11 -27 -1 26 c-1 31 6
39 33 38 14 -1 16 -3 5 -6z m-17 -88 c3 -14 1 -28 -3 -31 -5 -3 -9 1 -9 10 0
8 -3 21 -6 30 -3 9 -2 16 4 16 5 0 12 -11 14 -25z m-46 -22 c4 -10 8 -33 9
-51 2 -28 1 -30 -10 -15 -16 23 -27 83 -16 83 5 0 12 -8 17 -17z m69 -94 c29
-44 32 -61 10 -53 -8 4 -15 17 -15 29 0 13 -4 27 -10 30 -5 3 -15 15 -21 27
-19 36 9 10 36 -33z m-45 -31 c0 -6 10 -23 21 -40 16 -21 18 -33 10 -41 -8 -8
-16 3 -32 39 -12 27 -26 51 -30 52 -5 2 -6 8 -3 13 7 11 34 -8 34 -23z m52
-118 c-2 -7 1 -16 7 -19 5 -3 12 -20 16 -36 7 -28 6 -27 -13 8 -30 55 -34 69
-20 64 7 -2 12 -10 10 -17z m111 -77 c15 -20 27 -39 27 -44 0 -4 9 -11 21 -14
15 -5 18 -10 10 -18 -6 -6 -12 -9 -14 -6 -16 17 -76 109 -86 129 -9 21 -9 22
1 6 7 -10 25 -34 41 -53z m-43 -48 l25 -30 -27 24 c-16 14 -28 29 -28 34 0 6
1 8 3 6 1 -2 13 -17 27 -34z m486 3 c4 -7 3 -8 -4 -4 -7 4 -12 2 -12 -5 0 -7
-3 -10 -6 -6 -6 5 3 27 11 27 2 0 7 -5 11 -12z m-338 -93 c-3 -3 -13 7 -23 22
l-17 28 23 -22 c12 -12 20 -25 17 -28z m105 0 c-10 -13 -22 -25 -27 -25 -9 0
11 29 29 42 17 13 17 9 -2 -17z"/>
<path d="M808 1263 c-41 -26 -62 -72 -55 -122 6 -51 22 -71 53 -71 14 0 23 -5
21 -12 -1 -9 13 -14 40 -16 85 -6 139 51 124 134 -10 51 -18 64 -40 64 -9 0
-23 6 -30 13 -7 6 -3 -8 9 -32 28 -57 21 -121 -17 -151 -33 -26 -46 -25 -80 4
-25 22 -28 31 -27 83 1 93 3 97 59 109 l50 12 -40 1 c-22 0 -52 -7 -67 -16z"/>
<path d="M1010 1270 c0 -5 7 -10 15 -10 13 0 15 -16 14 -100 -2 -73 -6 -100
-15 -100 -7 0 -15 -4 -18 -8 -3 -5 16 -9 42 -10 43 0 45 1 27 14 -17 12 -21
29 -24 99 -2 58 1 85 8 85 6 0 11 -6 11 -14 0 -8 5 -18 10 -21 6 -4 10 10 10
34 l0 41 -40 0 c-22 0 -40 -4 -40 -10z"/>
<path d="M1221 1248 c-6 -17 -9 -34 -6 -37 3 -3 8 5 12 17 6 23 27 30 38 12 3
-6 -1 -7 -9 -4 -12 4 -16 0 -16 -16 0 -14 4 -19 13 -14 9 6 8 3 -1 -9 -8 -9
-13 -35 -12 -59 3 -68 1 -78 -15 -78 -8 0 -15 -4 -15 -10 0 -5 23 -10 51 -10
41 0 49 3 41 13 -17 20 -19 192 -3 211 12 14 9 16 -27 16 -36 0 -41 -3 -51
-32z"/>
<path d="M1333 1266 c23 -18 25 -170 1 -204 -15 -22 -15 -22 27 -22 l43 0 -22
20 c-19 18 -22 31 -22 102 0 49 4 78 9 73 5 -6 26 -49 46 -97 33 -78 55 -109
55 -77 0 11 27 76 60 144 l19 40 -2 -95 c-1 -70 -5 -94 -14 -93 -7 2 -13 -2
-13 -7 0 -6 23 -10 51 -10 42 0 49 2 40 14 -13 15 -17 181 -6 209 6 14 2 17
-28 17 -34 0 -35 -2 -67 -80 -19 -43 -36 -77 -40 -75 -4 2 -20 38 -36 80 l-29
75 -45 0 c-40 -1 -43 -2 -27 -14z"/>
<path d="M1633 1266 c13 -10 17 -28 17 -70 0 -43 3 -55 13 -50 10 6 10 4 0 -7
-19 -19 -16 -43 8 -70 19 -23 20 -23 14 -2 -3 12 -1 24 4 27 6 4 10 37 9 74 0
91 0 92 17 92 8 0 15 5 15 10 0 6 -26 10 -57 10 -50 -1 -56 -2 -40 -14z"/>
<path d="M1780 1270 c0 -5 6 -9 13 -7 20 4 22 -161 2 -183 -25 -27 -52 -30
-80 -8 l-25 19 9 -23 c9 -25 38 -33 78 -23 34 8 50 54 55 153 l3 82 -27 0
c-16 0 -28 -4 -28 -10z"/>
<path d="M1860 1271 c0 -6 5 -13 10 -16 6 -3 10 -48 10 -100 0 -77 -3 -94 -16
-99 -9 -4 -14 -9 -11 -13 4 -3 13 0 22 7 10 8 15 9 15 1 0 -6 9 -11 20 -11 11
0 20 5 20 10 0 6 -8 10 -19 10 -17 0 -18 7 -14 73 3 39 5 75 6 80 1 4 36 -33
77 -83 41 -49 78 -90 81 -90 4 0 10 50 14 110 4 61 11 110 16 110 5 0 9 4 9 8
0 5 -16 9 -35 10 -36 1 -47 -11 -20 -22 11 -4 15 -22 15 -73 l-1 -68 -49 55
c-27 30 -54 54 -59 53 -6 -2 -8 3 -5 11 3 8 -5 21 -18 30 -25 17 -68 22 -68 7z"/>
<path d="M2130 1271 c0 -5 5 -11 11 -13 10 -3 20 -96 20 -180 0 -14 3 -14 22
5 18 18 21 33 22 96 0 50 4 76 13 79 29 9 8 22 -38 22 -27 0 -50 -4 -50 -9z"/>
<path d="M2413 1264 c-3 -8 0 -25 6 -37 7 -12 21 -38 31 -57 22 -40 26 -100 8
-119 -11 -10 -6 -12 22 -9 34 3 35 4 37 48 2 50 59 170 81 170 29 0 9 15 -23
17 -33 3 -49 -11 -24 -19 13 -4 -20 -77 -45 -97 -18 -15 -17 -15 -22 19 -6 51
-29 100 -47 100 -10 0 -20 -7 -24 -16z"/>
<path d="M1100 1220 c0 -5 5 -10 10 -10 6 0 10 5 10 10 0 6 -4 10 -10 10 -5 0
-10 -4 -10 -10z"/>
<path d="M1102 1187 c-8 -9 -4 -29 14 -72 13 -33 24 -61 24 -62 0 -2 5 -3 11
-3 13 0 6 71 -11 118 -13 35 -22 39 -38 19z"/>
<path d="M1187 1165 c-24 -50 -21 -69 4 -20 10 21 18 43 16 48 -1 5 -10 -8
-20 -28z"/>
<path d="M2180 1050 c0 -6 11 -10 25 -10 14 0 25 4 25 8 0 4 -11 9 -25 10 -14
1 -25 -3 -25 -8z"/>
<path d="M2566 547 c-38 -28 -13 -97 35 -97 44 0 65 63 31 93 -22 20 -42 21
-66 4z m64 -11 c28 -35 -11 -93 -47 -70 -36 22 -23 84 17 84 10 0 23 -7 30
-14z"/>
<path d="M2580 503 c0 -22 2 -25 10 -13 6 10 10 11 10 3 0 -24 15 -13 16 12 2
18 -3 25 -17 25 -14 0 -19 -7 -19 -27z"/>
</g>
</svg>
